<mxfile host="65bd71144e">
    <diagram id="pVMHrjWmogwYdBB5azaM" name="Страница 1">
        <mxGraphModel dx="926" dy="1042" grid="1" gridSize="10" guides="1" tooltips="1" connect="1" arrows="1" fold="1" page="1" pageScale="1" pageWidth="827" pageHeight="1169" math="0" shadow="0">
            <root>
                <mxCell id="0"/>
                <mxCell id="1" parent="0"/>
                <mxCell id="208" style="edgeStyle=none;html=1;entryX=0.5;entryY=0;entryDx=0;entryDy=0;" parent="1" source="206" target="207" edge="1">
                    <mxGeometry relative="1" as="geometry">
                        <Array as="points">
                            <mxPoint x="250" y="40"/>
                        </Array>
                    </mxGeometry>
                </mxCell>
                <mxCell id="206" value="Клиент" style="shape=umlActor;verticalLabelPosition=bottom;verticalAlign=top;html=1;" parent="1" vertex="1">
                    <mxGeometry x="384" y="10" width="30" height="60" as="geometry"/>
                </mxCell>
                <mxCell id="213" style="edgeStyle=none;html=1;entryX=0;entryY=0.5;entryDx=0;entryDy=0;" parent="1" source="207" target="209" edge="1">
                    <mxGeometry relative="1" as="geometry">
                        <Array as="points">
                            <mxPoint x="250" y="280"/>
                        </Array>
                    </mxGeometry>
                </mxCell>
                <mxCell id="207" value="Контакт/Клиентское приложение" style="shape=ext;double=1;rounded=1;whiteSpace=wrap;html=1;" parent="1" vertex="1">
                    <mxGeometry x="160" y="110" width="180" height="50" as="geometry"/>
                </mxCell>
                <mxCell id="212" style="edgeStyle=none;html=1;entryX=0.5;entryY=1;entryDx=0;entryDy=0;exitX=0;exitY=0;exitDx=0;exitDy=0;" parent="1" source="209" target="210" edge="1">
                    <mxGeometry relative="1" as="geometry">
                        <Array as="points">
                            <mxPoint x="550" y="245"/>
                        </Array>
                    </mxGeometry>
                </mxCell>
                <mxCell id="215" style="edgeStyle=none;html=1;entryX=0.5;entryY=0;entryDx=0;entryDy=0;exitX=0;exitY=1;exitDx=0;exitDy=0;" parent="1" source="209" target="214" edge="1">
                    <mxGeometry relative="1" as="geometry">
                        <Array as="points">
                            <mxPoint x="250" y="315"/>
                        </Array>
                    </mxGeometry>
                </mxCell>
                <mxCell id="217" style="edgeStyle=none;html=1;entryX=0.5;entryY=0;entryDx=0;entryDy=0;exitX=0.5;exitY=1;exitDx=0;exitDy=0;" parent="1" source="209" target="216" edge="1">
                    <mxGeometry relative="1" as="geometry">
                        <Array as="points">
                            <mxPoint x="550" y="330"/>
                        </Array>
                    </mxGeometry>
                </mxCell>
                <mxCell id="219" style="edgeStyle=none;html=1;entryX=0.5;entryY=0;entryDx=0;entryDy=0;" parent="1" source="209" target="218" edge="1">
                    <mxGeometry relative="1" as="geometry">
                        <Array as="points">
                            <mxPoint x="745" y="470"/>
                            <mxPoint x="250" y="470"/>
                        </Array>
                    </mxGeometry>
                </mxCell>
                <mxCell id="221" style="edgeStyle=none;html=1;entryX=0.5;entryY=0;entryDx=0;entryDy=0;" parent="1" source="209" target="220" edge="1">
                    <mxGeometry relative="1" as="geometry">
                        <Array as="points">
                            <mxPoint x="745" y="480"/>
                            <mxPoint x="560" y="480"/>
                        </Array>
                    </mxGeometry>
                </mxCell>
                <mxCell id="223" style="edgeStyle=none;html=1;entryX=0.5;entryY=0;entryDx=0;entryDy=0;" parent="1" source="209" target="222" edge="1">
                    <mxGeometry relative="1" as="geometry">
                        <Array as="points">
                            <mxPoint x="745" y="610"/>
                            <mxPoint x="250" y="610"/>
                        </Array>
                    </mxGeometry>
                </mxCell>
                <mxCell id="225" style="edgeStyle=none;html=1;entryX=0.5;entryY=0;entryDx=0;entryDy=0;entryPerimeter=0;" parent="1" source="209" target="224" edge="1">
                    <mxGeometry relative="1" as="geometry"/>
                </mxCell>
                <mxCell id="209" value="CRM" style="ellipse;" parent="1" vertex="1">
                    <mxGeometry x="690" y="230" width="110" height="100" as="geometry"/>
                </mxCell>
                <mxCell id="226" style="edgeStyle=none;html=1;" parent="1" source="210" target="206" edge="1">
                    <mxGeometry relative="1" as="geometry">
                        <Array as="points">
                            <mxPoint x="550" y="40"/>
                        </Array>
                    </mxGeometry>
                </mxCell>
                <mxCell id="210" value="Обратная связь" style="shape=ext;double=1;rounded=1;whiteSpace=wrap;html=1;" parent="1" vertex="1">
                    <mxGeometry x="460" y="110" width="180" height="50" as="geometry"/>
                </mxCell>
                <mxCell id="214" value="API ERP Системы" style="shape=ext;double=1;rounded=1;whiteSpace=wrap;html=1;" parent="1" vertex="1">
                    <mxGeometry x="160" y="360" width="180" height="50" as="geometry"/>
                </mxCell>
                <mxCell id="216" value="API ChatGPT" style="shape=ext;double=1;rounded=1;whiteSpace=wrap;html=1;" parent="1" vertex="1">
                    <mxGeometry x="460" y="360" width="180" height="50" as="geometry"/>
                </mxCell>
                <mxCell id="218" value="База знаний" style="shape=ext;double=1;rounded=1;whiteSpace=wrap;html=1;" parent="1" vertex="1">
                    <mxGeometry x="160" y="508" width="180" height="50" as="geometry"/>
                </mxCell>
                <mxCell id="220" value="Сделки" style="shape=ext;double=1;rounded=1;whiteSpace=wrap;html=1;" parent="1" vertex="1">
                    <mxGeometry x="470" y="508" width="180" height="50" as="geometry"/>
                </mxCell>
                <mxCell id="222" value="Почтовый сервер" style="shape=ext;double=1;rounded=1;whiteSpace=wrap;html=1;" parent="1" vertex="1">
                    <mxGeometry x="160" y="630" width="180" height="50" as="geometry"/>
                </mxCell>
                <mxCell id="224" value="Отдел продаж" style="shape=umlActor;verticalLabelPosition=bottom;verticalAlign=top;html=1;" parent="1" vertex="1">
                    <mxGeometry x="730" y="710" width="30" height="60" as="geometry"/>
                </mxCell>
            </root>
        </mxGraphModel>
    </diagram>
</mxfile>